<?xml version="1.0" encoding="utf-8"?>
<!-- Generator: Adobe Illustrator 23.0.0, SVG Export Plug-In . SVG Version: 6.00 Build 0)  -->
<svg version="1.1" id="图层_1" xmlns="http://www.w3.org/2000/svg" xmlns:xlink="http://www.w3.org/1999/xlink" x="0px" y="0px"
	 viewBox="0 0 293.7 40" style="enable-background:new 0 0 293.7 40;" xml:space="preserve">
<style type="text/css">
	.st0{display:none;fill:#160C0C;}
	.st1{fill:#FFFFFF;}
	.st2{display:none;}
	.st3{display:inline;}
	.st4{display:none;fill:#FFFFFF;enable-background:new    ;}
	.st5{font-family:'SSShuiDiTi';}
	.st6{font-size:27px;}
	.st7{display:inline;fill:#FFFFFF;}
</style>
<rect x="-55.4" y="-1.7" class="st0" width="350.7" height="85.8"/>
<g>
	<path class="st1" d="M42.5,12c-1.5-2.6-3.6-4.7-6.2-6.2c-0.6-0.4-1.5-0.2-1.8,0.5c-0.4,0.6-0.2,1.5,0.5,1.8c2.2,1.3,4,3.1,5.2,5.2
		c1.3,2.2,2,4.8,2,7.4c0,4.5-2,8.7-5.6,11.5c-0.1,0.1-0.3,0.1-0.4,0.1c-0.1,0-0.2-0.1-0.3-0.2l-1.8-2.9c2.5-1.9,4.2-5,4.2-8.4
		c0-5.9-4.8-10.6-10.6-10.6S17,14.8,17,20.7c0,3.4,1.6,6.5,4.1,8.4L19.3,32c-0.1,0.2-0.2,0.2-0.3,0.2c-0.1,0-0.2,0-0.4-0.1
		c-3.6-2.8-5.6-7-5.6-11.5c0-2.6,0.7-5.1,2-7.4c1.3-2.2,3.1-4,5.2-5.2c0.6-0.4,0.9-1.2,0.5-1.8s-1.2-0.9-1.8-0.5
		c-2.6,1.5-4.7,3.6-6.2,6.2s-2.4,5.6-2.4,8.7c0,2.7,0.6,5.3,1.8,7.7c1.1,2.3,2.8,4.3,4.8,5.9c0.6,0.4,1.2,0.7,1.9,0.7
		c0.2,0,0.4,0,0.6,0c0.9-0.2,1.7-0.7,2.1-1.4l1.9-3c1.3,0.6,2.7,0.9,4.2,0.9s2.9-0.3,4.1-0.8l1.8,3c0.5,0.8,1.2,1.3,2.1,1.4
		c0.2,0,0.4,0,0.6,0c0.7,0,1.4-0.2,1.9-0.7c2-1.6,3.7-3.6,4.8-5.9l0,0c1.2-2.4,1.8-5,1.8-7.7C44.9,17.6,44.1,14.6,42.5,12z
		 M27.6,28.6c-4.4,0-7.9-3.6-7.9-7.9c0-4.4,3.6-7.9,7.9-7.9c4.4,0,7.9,3.6,7.9,7.9C35.6,25.1,32,28.6,27.6,28.6z"/>
	<path class="st1" d="M30.5,19.9h-1.2c-0.2,0-0.9,0.1-1.2,0c0-0.1,0.1-0.5,0.1-0.6c0.1-0.5,0.2-0.8,0.4-1.3l0.6-1.9
		c0-0.4-0.4-0.5-0.5-0.2l-4.3,5.9c-0.1,0.1,0,0.4,0.2,0.4h1.7c0.1,0,0.6-0.1,0.7,0c0,0-0.1,0.4-0.1,0.5c-0.4,1.2-0.6,2.2-0.9,3.4
		c-0.1,0.2,0.2,0.4,0.4,0.1l4.3-5.9C30.7,20.1,30.6,19.9,30.5,19.9z"/>
</g>
<g class="st2">
	<polygon class="st3" points="78.8,26.9 73.7,9.8 71.2,9.8 66.1,26.9 61.2,9.8 57.3,9.8 64.4,32.2 67.7,32.2 72.6,16.5 77.2,32.2 
		80.5,32.2 87.6,9.8 83.8,9.8 	"/>
	<path class="st3" d="M103.6,10.5c-1.4-0.6-3.1-1-5-1s-3.6,0.3-5,1s-2.5,1.6-3.2,2.9c-0.7,1.2-1.1,2.8-1.1,4.5V24
		c0,1.8,0.4,3.3,1.1,4.5c0.7,1.3,1.8,2.2,3.2,2.9c1.4,0.6,3.1,1,5,1s3.6-0.3,5-1s2.5-1.6,3.2-2.9s1.1-2.8,1.1-4.5v-6.1
		c0-1.8-0.4-3.3-1.1-4.5C106.1,12.1,105,11.2,103.6,10.5z M104.4,17.8v6.3c0,1.7-0.5,3-1.5,3.9s-2.5,1.4-4.4,1.4S95.2,29,94.2,28
		c-1-0.9-1.5-2.2-1.5-3.9v-6.3c0-1.7,0.5-3,1.5-3.9s2.5-1.4,4.4-1.4s3.3,0.5,4.4,1.4C103.9,14.8,104.4,16.1,104.4,17.8z"/>
	<polygon class="st3" points="128.4,26.7 115.5,9.8 112.3,9.8 112.3,32.2 115.8,32.2 115.8,15.5 128.6,32.2 131.9,32.2 131.9,9.8 
		128.4,9.8 	"/>
	<polygon class="st3" points="154.3,12.7 154.3,9.8 137.1,9.8 137.1,32.2 154.3,32.2 154.3,29.2 140.6,29.2 140.6,22.5 152.4,22.5 
		152.4,19.6 140.6,19.6 140.6,12.7 	"/>
</g>
<g class="st2">
	<path class="st3" d="M69.3,30.1H57.5V9.2h11.2v2.4h-8.4v6.7h7.8v2.4h-7.8v7h8.9v2.4C69.2,30.1,69.3,30.1,69.3,30.1z"/>
	<path class="st3" d="M73,30.1V8h2.8v22.1H73z"/>
	<path class="st3" d="M93.4,23.3H82.5c0,1.6,0.5,2.8,1.4,3.7c0.9,0.9,2.1,1.3,3.6,1.3c1.7,0,3.3-0.5,4.8-1.6v2.4
		c-1.4,0.9-3.2,1.4-5.4,1.4c-2.3,0-4-0.7-5.3-2.1s-1.9-3.3-1.9-5.7c0-2.3,0.7-4.2,2.1-5.7s3.1-2.2,5.2-2.2c2,0,3.6,0.6,4.8,1.9
		c1.1,1.3,1.7,3,1.7,5.3L93.4,23.3L93.4,23.3z M90.6,21.2c0-1.3-0.3-2.4-1-3.1S88.1,17,86.9,17c-1.1,0-2,0.4-2.9,1.2
		s-1.3,1.8-1.5,3.1h8.1V21.2z"/>
	<path class="st3" d="M107.8,29.5c-1.2,0.7-2.6,1-4.3,1c-2.3,0-4.1-0.7-5.4-2.1C96.7,27,96,25.2,96,23c0-2.4,0.7-4.4,2.2-5.9
		s3.5-2.2,5.9-2.2c1.4,0,2.6,0.2,3.7,0.7v2.6c-1.1-0.8-2.3-1.2-3.7-1.2c-1.6,0-2.9,0.5-3.9,1.6c-1,1-1.5,2.4-1.5,4.2
		c0,1.7,0.5,3.1,1.4,4c0.9,1,2.2,1.5,3.8,1.5c1.3,0,2.6-0.4,3.8-1.3L107.8,29.5L107.8,29.5z"/>
	<path class="st3" d="M119,30c-0.6,0.3-1.4,0.5-2.4,0.5c-2.8,0-4.2-1.5-4.2-4.4v-8.6h-2.7v-2.2h2.7v-3.6l2.7-0.8v4.4h3.9v2.2h-3.9
		v8.1c0,1,0.2,1.7,0.5,2.1s0.9,0.6,1.7,0.6c0.6,0,1.2-0.2,1.6-0.5V30H119z"/>
	<path class="st3" d="M130.6,17.8c-0.5-0.3-1.1-0.5-1.9-0.5c-1.1,0-2,0.5-2.6,1.4c-0.7,1-1,2.2-1,3.8v7.6h-2.8V15.2h2.8v3h0.1
		c0.8-2.2,2.1-3.3,4.1-3.3c0.6,0,1.1,0.1,1.5,0.2v2.7C130.8,17.8,130.6,17.8,130.6,17.8z"/>
	<path class="st3" d="M133,9.9c0-0.5,0.2-0.9,0.5-1.2s0.7-0.5,1.2-0.5s0.9,0.2,1.3,0.5c0.3,0.3,0.5,0.7,0.5,1.2s-0.2,0.9-0.5,1.2
		s-0.8,0.5-1.3,0.5s-0.9-0.2-1.2-0.5C133.1,10.8,133,10.4,133,9.9z M133.3,30.1V15.2h2.8v14.9C136.1,30.1,133.3,30.1,133.3,30.1z"/>
	<path class="st3" d="M151.7,29.5c-1.2,0.7-2.6,1-4.3,1c-2.3,0-4.1-0.7-5.4-2.1c-1.4-1.4-2.1-3.2-2.1-5.4c0-2.4,0.7-4.4,2.2-5.9
		s3.5-2.2,5.9-2.2c1.4,0,2.6,0.2,3.7,0.7v2.6c-1.1-0.8-2.3-1.2-3.7-1.2c-1.6,0-2.9,0.5-3.9,1.6c-1,1-1.5,2.4-1.5,4.2
		c0,1.7,0.5,3.1,1.4,4s2.2,1.5,3.8,1.5c1.3,0,2.6-0.4,3.8-1.3v2.5H151.7z"/>
	<path class="st3" d="M155.8,16.2c1.5-0.9,3.3-1.4,5.4-1.4c3.8,0,5.6,1.9,5.6,5.7v9.6h-2.7v-2.3H164c-1.1,1.8-2.7,2.7-4.8,2.7
		c-1.5,0-2.7-0.4-3.6-1.2c-0.9-0.8-1.3-1.8-1.3-3.2c0-2.8,1.7-4.4,5.2-4.9l4.6-0.6c0-2.4-1.1-3.7-3.2-3.7c-1.9,0-3.6,0.6-5.1,1.8
		L155.8,16.2L155.8,16.2z M160.4,23.1c-1.3,0.2-2.2,0.5-2.6,0.9c-0.5,0.4-0.7,1.1-0.7,1.9c0,0.7,0.3,1.3,0.8,1.7
		c0.5,0.4,1.2,0.7,2.1,0.7c1.2,0,2.2-0.4,3-1.2c0.8-0.8,1.2-1.8,1.2-3v-1.4L160.4,23.1z"/>
	<path class="st3" d="M171.4,30.1V8h2.8v22.1H171.4z"/>
	<path class="st3" d="M199.7,30.1H188V9.2h11.2v2.4h-8.4v6.7h7.8v2.4h-7.8v7h8.9V30.1z"/>
	<path class="st3" d="M215.2,15.2l-5.2,7.5l5.1,7.4h-3.2l-3-4.7c-0.2-0.3-0.4-0.6-0.7-1.2h-0.1c0,0.1-0.2,0.4-0.7,1.2l-3,4.7h-3.2
		l5.3-7.3l-5.1-7.6h3.2l2.9,5c0.2,0.3,0.4,0.7,0.6,1.2h0.1l3.8-6.2C212,15.2,215.2,15.2,215.2,15.2z"/>
	<path class="st3" d="M220.8,28v9H218V15.2h2.8v2.6h0.1c1.2-2,3-2.9,5.4-2.9c2,0,3.6,0.7,4.7,2s1.7,3.1,1.7,5.4c0,2.5-0.6,4.5-1.9,6
		c-1.3,1.5-3,2.3-5.2,2.3C223.5,30.5,222,29.7,220.8,28L220.8,28z M220.8,24c0,1.2,0.4,2.2,1.2,3.1s1.8,1.2,3.1,1.2
		c1.5,0,2.6-0.5,3.4-1.6s1.2-2.6,1.2-4.5c0-1.6-0.4-2.9-1.2-3.8s-1.8-1.4-3.2-1.4s-2.5,0.5-3.4,1.4s-1.3,2.1-1.3,3.6v2
		C220.6,24,220.8,24,220.8,24z"/>
	<path class="st3" d="M249.2,23.3h-10.9c0,1.6,0.5,2.8,1.4,3.7s2.1,1.3,3.6,1.3c1.7,0,3.3-0.5,4.8-1.6v2.4c-1.4,0.9-3.2,1.4-5.4,1.4
		c-2.3,0-4-0.7-5.3-2.1s-1.9-3.3-1.9-5.7c0-2.3,0.7-4.2,2.1-5.7c1.4-1.5,3.1-2.2,5.2-2.2c2,0,3.6,0.6,4.8,1.9c1.1,1.3,1.7,3,1.7,5.3
		v1.3C249.3,23.3,249.2,23.3,249.2,23.3z M246.4,21.2c0-1.3-0.3-2.4-1-3.1s-1.6-1.1-2.8-1.1c-1.1,0-2,0.4-2.9,1.2s-1.3,1.8-1.5,3.1
		h8.2V21.2z"/>
	<path class="st3" d="M261.2,17.8c-0.5-0.3-1.1-0.5-1.9-0.5c-1.1,0-2,0.5-2.6,1.4c-0.7,1-1,2.2-1,3.8v7.6h-2.8V15.2h2.8v3h0.1
		c0.8-2.2,2.1-3.3,4.1-3.3c0.6,0,1.1,0.1,1.5,0.2v2.7C261.4,17.8,261.2,17.8,261.2,17.8z"/>
	<path class="st3" d="M272.2,30c-0.6,0.3-1.4,0.5-2.4,0.5c-2.8,0-4.2-1.5-4.2-4.4v-8.6h-2.7v-2.2h2.7v-3.6l2.7-0.8v4.4h3.9v2.2h-3.9
		v8.1c0,1,0.2,1.7,0.5,2.1s0.9,0.6,1.7,0.6c0.6,0,1.2-0.2,1.6-0.5L272.2,30L272.2,30z"/>
	<path class="st3" d="M274.6,26.9c1.4,1,2.9,1.4,4.5,1.4c2.1,0,3.2-0.7,3.2-2c0-0.6-0.2-1.1-0.7-1.4c-0.5-0.4-1.4-0.8-2.9-1.3
		c-1.7-0.7-2.8-1.3-3.4-2c-0.5-0.7-0.8-1.4-0.8-2.4c0-1.3,0.6-2.4,1.8-3.2c1.2-0.8,2.6-1.2,4.3-1.2c1.3,0,2.6,0.2,3.7,0.7v2.6
		c-1.2-0.7-2.5-1.1-4-1.1c-0.9,0-1.6,0.2-2.2,0.6s-0.8,0.9-0.8,1.5s0.2,1.1,0.6,1.4s1.3,0.8,2.7,1.3c1.7,0.6,2.9,1.3,3.5,1.9
		c0.6,0.7,0.9,1.5,0.9,2.5c0,1.4-0.6,2.4-1.8,3.2c-1.2,0.8-2.7,1.2-4.5,1.2c-1.6,0-3-0.3-4.2-0.9L274.6,26.9L274.6,26.9z"/>
</g>
<g>
	<path class="st1" d="M178.3,30.3h-11.8V9.4h11.2v2.4h-8.4v6.7h7.8v2.4h-7.8v7h8.9v2.4C178.2,30.3,178.3,30.3,178.3,30.3z"/>
	<path class="st1" d="M182,30.3V8.2h2.8v22.1H182z"/>
	<path class="st1" d="M202.4,23.5h-10.9c0,1.6,0.5,2.8,1.4,3.7c0.9,0.9,2.1,1.3,3.6,1.3c1.7,0,3.3-0.5,4.8-1.6v2.4
		c-1.4,0.9-3.2,1.4-5.4,1.4c-2.3,0-4-0.7-5.3-2.1c-1.3-1.4-1.9-3.3-1.9-5.7c0-2.3,0.7-4.2,2.1-5.7c1.4-1.5,3.1-2.2,5.2-2.2
		c2,0,3.6,0.6,4.8,1.9c1.1,1.3,1.7,3,1.7,5.3L202.4,23.5L202.4,23.5z M199.6,21.4c0-1.3-0.3-2.4-1-3.1c-0.7-0.7-1.5-1.1-2.7-1.1
		c-1.1,0-2,0.4-2.9,1.2s-1.3,1.8-1.5,3.1h8.1V21.4z"/>
	<path class="st1" d="M216.8,29.7c-1.2,0.7-2.6,1-4.3,1c-2.3,0-4.1-0.7-5.4-2.1c-1.4-1.4-2.1-3.2-2.1-5.4c0-2.4,0.7-4.4,2.2-5.9
		s3.5-2.2,5.9-2.2c1.4,0,2.6,0.2,3.7,0.7v2.6c-1.1-0.8-2.3-1.2-3.7-1.2c-1.6,0-2.9,0.5-3.9,1.6c-1,1-1.5,2.4-1.5,4.2
		c0,1.7,0.5,3.1,1.4,4c0.9,1,2.2,1.5,3.8,1.5c1.3,0,2.6-0.4,3.8-1.3L216.8,29.7L216.8,29.7z"/>
	<path class="st1" d="M228,30.2c-0.6,0.3-1.4,0.5-2.4,0.5c-2.8,0-4.2-1.5-4.2-4.4v-8.6h-2.7v-2.2h2.7v-3.6l2.7-0.8v4.4h3.9v2.2h-3.9
		v8.1c0,1,0.2,1.7,0.5,2.1c0.3,0.4,0.9,0.6,1.7,0.6c0.6,0,1.2-0.2,1.6-0.5v2.2H228z"/>
	<path class="st1" d="M239.6,18c-0.5-0.3-1.1-0.5-1.9-0.5c-1.1,0-2,0.5-2.6,1.4c-0.7,1-1,2.2-1,3.8v7.6h-2.8V15.4h2.8v3h0.1
		c0.8-2.2,2.1-3.3,4.1-3.3c0.6,0,1.1,0.1,1.5,0.2V18C239.8,18,239.6,18,239.6,18z"/>
	<path class="st1" d="M242,10.1c0-0.5,0.2-0.9,0.5-1.2s0.7-0.5,1.2-0.5s0.9,0.2,1.3,0.5c0.3,0.3,0.5,0.7,0.5,1.2s-0.2,0.9-0.5,1.2
		s-0.8,0.5-1.3,0.5s-0.9-0.2-1.2-0.5C242.1,11,242,10.6,242,10.1z M242.3,30.3V15.4h2.8v14.9C245.1,30.3,242.3,30.3,242.3,30.3z"/>
	<path class="st1" d="M260.7,29.7c-1.2,0.7-2.6,1-4.3,1c-2.3,0-4.1-0.7-5.4-2.1c-1.4-1.4-2.1-3.2-2.1-5.4c0-2.4,0.7-4.4,2.2-5.9
		s3.5-2.2,5.9-2.2c1.4,0,2.6,0.2,3.7,0.7v2.6c-1.1-0.8-2.3-1.2-3.7-1.2c-1.6,0-2.9,0.5-3.9,1.6c-1,1-1.5,2.4-1.5,4.2
		c0,1.7,0.5,3.1,1.4,4s2.2,1.5,3.8,1.5c1.3,0,2.6-0.4,3.8-1.3v2.5H260.7z"/>
	<path class="st1" d="M264.8,16.4c1.5-0.9,3.3-1.4,5.4-1.4c3.8,0,5.6,1.9,5.6,5.7v9.6h-2.7V28H273c-1.1,1.8-2.7,2.7-4.8,2.7
		c-1.5,0-2.7-0.4-3.6-1.2c-0.9-0.8-1.3-1.8-1.3-3.2c0-2.8,1.7-4.4,5.2-4.9l4.6-0.6c0-2.4-1.1-3.7-3.2-3.7c-1.9,0-3.6,0.6-5.1,1.8
		V16.4L264.8,16.4z M269.4,23.3c-1.3,0.2-2.2,0.5-2.6,0.9c-0.5,0.4-0.7,1.1-0.7,1.9c0,0.7,0.3,1.3,0.8,1.7c0.5,0.4,1.2,0.7,2.1,0.7
		c1.2,0,2.2-0.4,3-1.2c0.8-0.8,1.2-1.8,1.2-3v-1.4L269.4,23.3z"/>
	<path class="st1" d="M280.4,30.3V8.2h2.8v22.1H280.4z"/>
	<path class="st1" d="M68.7,30.3H57V9.4h11.2v2.4h-8.4v6.7h7.8v2.4h-7.8v7h8.9V30.3z"/>
	<path class="st1" d="M84.2,15.4L79,22.9l5.1,7.4h-3.2l-3-4.7c-0.2-0.3-0.4-0.6-0.7-1.2h-0.1c0,0.1-0.2,0.4-0.7,1.2l-3,4.7h-3.2
		l5.3-7.3l-5.1-7.6h3.2l2.9,5c0.2,0.3,0.4,0.7,0.6,1.2h0.1l3.8-6.2C81,15.4,84.2,15.4,84.2,15.4z"/>
	<path class="st1" d="M89.8,28.2v9H87V15.4h2.8V18h0.1c1.2-2,3-2.9,5.4-2.9c2,0,3.6,0.7,4.7,2s1.7,3.1,1.7,5.4c0,2.5-0.6,4.5-1.9,6
		c-1.3,1.5-3,2.3-5.2,2.3C92.5,30.7,91,29.9,89.8,28.2L89.8,28.2z M89.8,24.2c0,1.2,0.4,2.2,1.2,3.1s1.8,1.2,3.1,1.2
		c1.5,0,2.6-0.5,3.4-1.6s1.2-2.6,1.2-4.5c0-1.6-0.4-2.9-1.2-3.8s-1.8-1.4-3.2-1.4s-2.5,0.5-3.4,1.4s-1.3,2.1-1.3,3.6v2
		C89.6,24.2,89.8,24.2,89.8,24.2z"/>
	<path class="st1" d="M118.2,23.5h-10.9c0,1.6,0.5,2.8,1.4,3.7s2.1,1.3,3.6,1.3c1.7,0,3.3-0.5,4.8-1.6v2.4c-1.4,0.9-3.2,1.4-5.4,1.4
		c-2.3,0-4-0.7-5.3-2.1s-1.9-3.3-1.9-5.7c0-2.3,0.7-4.2,2.1-5.7c1.4-1.5,3.1-2.2,5.2-2.2c2,0,3.6,0.6,4.8,1.9c1.1,1.3,1.7,3,1.7,5.3
		v1.3C118.3,23.5,118.2,23.5,118.2,23.5z M115.4,21.4c0-1.3-0.3-2.4-1-3.1s-1.6-1.1-2.8-1.1c-1.1,0-2,0.4-2.9,1.2s-1.3,1.8-1.5,3.1
		h8.2V21.4z"/>
	<path class="st1" d="M130.2,18c-0.5-0.3-1.1-0.5-1.9-0.5c-1.1,0-2,0.5-2.6,1.4c-0.7,1-1,2.2-1,3.8v7.6h-2.8V15.4h2.8v3h0.1
		c0.8-2.2,2.1-3.3,4.1-3.3c0.6,0,1.1,0.1,1.5,0.2V18C130.4,18,130.2,18,130.2,18z"/>
	<path class="st1" d="M141.2,30.2c-0.6,0.3-1.4,0.5-2.4,0.5c-2.8,0-4.2-1.5-4.2-4.4v-8.6h-2.7v-2.2h2.7v-3.6l2.7-0.8v4.4h3.9v2.2
		h-3.9v8.1c0,1,0.2,1.7,0.5,2.1s0.9,0.6,1.7,0.6c0.6,0,1.2-0.2,1.6-0.5L141.2,30.2L141.2,30.2z"/>
	<path class="st1" d="M143.6,27.1c1.4,1,2.9,1.4,4.5,1.4c2.1,0,3.2-0.7,3.2-2c0-0.6-0.2-1.1-0.7-1.4c-0.5-0.4-1.4-0.8-2.9-1.3
		c-1.7-0.7-2.8-1.3-3.4-2c-0.5-0.7-0.8-1.4-0.8-2.4c0-1.3,0.6-2.4,1.8-3.2c1.2-0.8,2.6-1.2,4.3-1.2c1.3,0,2.6,0.2,3.7,0.7v2.6
		c-1.2-0.7-2.5-1.1-4-1.1c-0.9,0-1.6,0.2-2.2,0.6s-0.8,0.9-0.8,1.5s0.2,1.1,0.6,1.4s1.3,0.8,2.7,1.3c1.7,0.6,2.9,1.3,3.5,1.9
		c0.6,0.7,0.9,1.5,0.9,2.5c0,1.4-0.6,2.4-1.8,3.2c-1.2,0.8-2.7,1.2-4.5,1.2c-1.6,0-3-0.3-4.2-0.9L143.6,27.1L143.6,27.1z"/>
</g>
<text transform="matrix(1 0 0 1 60.915 26.8514)" class="st4 st5 st6">IEE Business</text>
<g class="st2">
	<path class="st7" d="M59,6.9h2.6c0.7,0,1.2,0.3,1.4,1c0,0.2,0.1,0.3,0.1,0.5v24.1c0,0.5-0.3,0.9-0.8,1.1c-0.1,0-0.2,0-0.3,0h-1.7
		c-0.5,0-0.8-0.3-1.1-0.8c0-0.1,0-0.2,0-0.3V8.6c0-0.5-0.1-0.9-0.4-1.2c-0.1-0.1-0.1-0.2-0.1-0.3l0,0C58.7,7,58.8,6.9,59,6.9z"/>
	<path class="st7" d="M83.7,6.6L83.7,6.6c0.4,0,0.7,0.2,0.9,0.6c0,0.1,0,0.2,0,0.2v0.1c0,0.4-0.4,0.7-1.1,1.1
		c-0.3,0.1-0.6,0.1-0.9,0.1H71.3c-0.6,0-1,0.2-1.2,0.6c0,0.3-0.1,0.6-0.1,0.9v5.5c0,2.1,1.7,3.9,3.9,3.9h9.2c0.3,0,0.5,0.2,0.6,0.5
		v0.5c0,0.3-0.2,0.5-0.5,0.6h-9.3c-2.1,0-3.9,1.7-3.9,3.9v3.2c0,1.8,0.4,2.9,1.3,3.4c0.4,0.2,1,0.3,1.7,0.3h11.7
		c0.3,0,0.5,0.1,0.6,0.4v0.1V33c0,0.3-0.1,0.4-0.4,0.6h-0.1H71c-1.6,0-2.8-0.4-3.6-1.3c-0.8-0.9-1.2-2.2-1.2-3.8V9.1
		c0-0.9,0.2-1.5,0.7-1.7c0.3-0.2,0.8-0.3,1.6-0.3h14.3c0.2,0,0.5-0.1,0.7-0.4C83.5,6.7,83.6,6.6,83.7,6.6z"/>
	<path class="st7" d="M105.8,6.6L105.8,6.6c0.4,0,0.7,0.2,0.9,0.6c0,0.1,0,0.2,0,0.2v0.1c0,0.4-0.4,0.7-1.1,1.1
		c-0.3,0.1-0.6,0.1-0.9,0.1H93.4c-0.6,0-1,0.2-1.2,0.6c-0.1,0.2-0.1,0.5-0.1,0.9v5.5c0,2.1,1.7,3.9,3.9,3.9h9.2
		c0.3,0,0.5,0.2,0.6,0.5v0.5c0,0.3-0.2,0.5-0.5,0.6H96c-2.1,0-3.9,1.7-3.9,3.9v3.2c0,1.8,0.4,2.9,1.3,3.4c0.4,0.2,1,0.3,1.7,0.3
		h11.7c0.3,0,0.5,0.1,0.6,0.4v0.1V33c0,0.3-0.1,0.4-0.4,0.6h-0.1H93c-1.6,0-2.8-0.4-3.6-1.3c-0.8-0.9-1.2-2.2-1.2-3.8V9.1
		c0-0.9,0.2-1.5,0.7-1.7c0.3-0.2,0.8-0.3,1.6-0.3h14.3c0.2,0,0.5-0.1,0.7-0.4C105.6,6.7,105.7,6.6,105.8,6.6z"/>
	<path class="st7" d="M128,6.9h9.2c3.4,0,5.8,0.8,7.2,2.4c1,1.1,1.5,2.6,1.5,4.3V14c0,1.6-0.5,2.9-1.5,4.1c-0.9,1-2.1,1.6-3.6,2l0,0
		c0.2,0,0.9,0.2,1.9,0.5c0.9,0.4,1.8,0.9,2.5,1.5c0.6,0.7,1.1,1.3,1.3,2c0.3,0.9,0.5,1.7,0.5,2.4v0.1c0,3.2-1.4,5.3-4.3,6.3
		c-1.4,0.5-3,0.7-4.8,0.7h-10c-0.4,0-0.8-0.2-1-0.7c-0.1-0.2-0.1-0.3-0.1-0.5V8.1c0-0.4,0.2-0.8,0.7-1C127.7,7,127.9,6.9,128,6.9z
		 M130.8,12.5v3.1c0,2.1,1.7,3.9,3.9,3.9h0.1c2.6,0,4.4-0.6,5.4-1.7c0.4-0.5,0.7-0.9,0.9-1.3c0.3-0.8,0.5-1.6,0.5-2.5v-0.4
		c0-1.7-0.6-2.9-1.7-3.7c-0.7-0.5-1.6-0.8-2.7-1c-0.6-0.1-1.5-0.2-2.6-0.2l0,0C132.6,8.6,130.8,10.3,130.8,12.5z M130.8,25v3.2
		c0,2.1,1.7,3.9,3.9,3.9h0.9c3.6,0,5.8-0.9,6.7-2.7c0.4-0.7,0.6-1.6,0.6-2.6c0-2.5-1-4.2-3.1-5c-1.1-0.5-2.5-0.7-4.3-0.7h-0.8
		C132.6,21.1,130.8,22.8,130.8,25z"/>
	<path class="st7" d="M151.1,14.3h1.6c0.5,0,0.9,0.3,1.1,0.9c0,0.1,0.1,0.3,0.1,0.4v11.8c0,1.6,0.6,2.9,1.9,3.8
		c0.8,0.5,1.7,0.8,2.6,0.8h0.2c1.3,0,2.4-0.5,3.3-1.5c0.7-0.9,1.1-1.9,1.1-3.1V15.5c0-0.3,0.1-0.6,0.3-0.9c0.3-0.3,0.5-0.4,0.9-0.4
		h1.6c0.5,0,0.9,0.3,1.1,0.8c0.1,0.1,0.1,0.3,0.1,0.4v17c0,0.5-0.3,0.9-0.8,1.1c-0.1,0-0.2,0-0.3,0h-1.6c-0.5,0-0.9-0.3-1.1-0.8
		v-0.1c-1.4,0.6-2.9,0.9-4.5,0.9h-0.2c-2.2,0-4.1-0.5-5.8-1.6c-0.3-0.2-0.6-0.5-0.8-0.7c-1.2-1.1-1.8-2.5-1.8-4V15.4
		c0-0.4,0.2-0.8,0.7-1.1C150.8,14.3,151,14.3,151.1,14.3z"/>
	<path class="st7" d="M178.6,14.3c1.2,0,2.5,0.2,4,0.7c0.8,0.3,1.5,0.7,2.2,1.1c0.4,0.3,0.9,0.7,1.4,1.2c0.1,0.1,0.1,0.2,0.1,0.3
		c0,0.1-0.2,0.4-0.5,0.7c-0.1,0.1-0.2,0.2-0.4,0.2c-0.1,0-0.4-0.2-0.9-0.5c-1.9-1.1-3.8-1.7-5.7-1.7c-2.4,0-3.9,0.5-4.7,1.6
		c-0.3,0.5-0.5,1-0.5,1.6c0,1.4,1.5,2.4,4.5,2.8c1,0.1,1.8,0.2,2.3,0.3c0.1,0,0.2,0,0.3,0.1c1,0.2,1.7,0.4,2.3,0.7
		c2.4,1,3.6,2.6,3.6,4.8v0.2c0,2.4-1.2,4-3.5,4.9c-1.2,0.4-2.5,0.5-4,0.5h-0.3c-2.4,0-4.7-0.6-6.9-1.7c-0.7-0.4-1.3-0.8-2-1.5
		c-0.2-0.1-0.3-0.3-0.3-0.4l0,0c0-0.1,0.1-0.4,0.4-0.6c0.1-0.2,0.2-0.3,0.3-0.3h0.1c0.1,0,0.4,0.2,1,0.5c2.1,1.2,4.2,1.8,6.4,1.8
		c2.4,0,3.9-0.6,4.6-1.7c0.2-0.4,0.3-0.9,0.3-1.5c0-1.6-1.3-2.6-4-3.1c-0.5-0.1-1.3-0.2-2.5-0.3c-1.1-0.2-2-0.4-2.7-0.6
		c-2.5-0.9-3.7-2.3-3.7-4.2c0-2.3,1.2-3.9,3.5-4.9C175.2,14.5,176.9,14.3,178.6,14.3z"/>
	<path class="st7" d="M190.1,14.3h2.7c0.7,0,1.1,0.3,1.4,0.9c0.1,0.2,0.1,0.4,0.1,0.6v16.7c0,0.5-0.3,0.9-0.8,1.1
		c-0.1,0-0.2,0-0.3,0h-1.6c-0.4,0-0.7-0.2-1-0.7c-0.1-0.2-0.1-0.3-0.1-0.5V15.9c0-0.4-0.1-0.8-0.4-1.1c-0.1-0.1-0.1-0.2-0.1-0.3l0,0
		C189.8,14.3,189.9,14.3,190.1,14.3z M192.2,6.9L192.2,6.9c0.8,0,1.4,0.3,1.8,0.9c0.2,0.4,0.3,0.7,0.3,1.1V9c0,0.8-0.4,1.4-1.2,1.9
		c-0.3,0.1-0.7,0.2-1,0.2c-0.7,0-1.3-0.3-1.8-0.9c-0.2-0.4-0.3-0.7-0.3-1.1V9c0-0.7,0.3-1.2,0.9-1.7C191.5,7.1,191.8,6.9,192.2,6.9z
		"/>
	<path class="st7" d="M197.4,14.3h2.4c0.8,0,1.3,0.3,1.6,0.9l0,0c1.4-0.6,2.9-0.9,4.6-0.9h0.1c2.1,0,3.9,0.5,5.6,1.5
		c1.9,1.3,2.8,2.9,2.8,4.9v11.9c0,0.5-0.3,0.9-0.9,1.2c-0.1,0-0.2,0-0.2,0h-1.6c-0.5,0-0.8-0.2-1.1-0.7c-0.1-0.2-0.1-0.3-0.1-0.6
		V20.7c0-1.7-0.7-3.1-2.1-4c-0.8-0.4-1.6-0.6-2.4-0.6H206c-1.2,0-2.3,0.5-3.3,1.4c0,0-0.1,0.2-0.3,0.4c-0.6,0.9-0.9,1.8-0.9,2.8
		v11.8c0,0.3-0.1,0.6-0.3,0.9c-0.3,0.3-0.5,0.4-0.8,0.4h-1.7c-0.4,0-0.8-0.2-1-0.7c-0.1-0.2-0.1-0.3-0.1-0.4V16
		c0-0.5-0.1-0.9-0.4-1.2c-0.1-0.1-0.1-0.2-0.1-0.3l0,0C197,14.3,197.2,14.3,197.4,14.3z"/>
	<path class="st7" d="M226.3,14.3h0.2c3.7,0,6.3,1.1,7.8,3.3c0.8,1.3,1.2,2.8,1.2,4.4c0,1.3-0.6,2.2-1.7,2.6
		c-0.4,0.2-0.9,0.2-1.5,0.2h-10.9c0,0.2,0.1,0.7,0.3,1.7c0.3,1.1,0.8,2,1.5,2.8c0.5,0.5,1,0.8,1.3,0.9c1,0.5,2.1,0.7,3.3,0.7h0.2
		c1.9,0,3.7-0.5,5.2-1.6c0.3-0.2,0.6-0.5,0.9-0.8c0.1-0.1,0.1-0.1,0.2-0.1h0.1c0.1,0,0.4,0.2,0.8,0.5c0.1,0.1,0.1,0.2,0.1,0.3
		c-0.1,0.4-0.5,1.1-1.2,1.9c-0.7,0.6-1.2,1.1-1.6,1.3c-1.4,0.8-3.1,1.2-4.9,1.2h-0.2c-3.3,0-5.8-1-7.7-2.9c-1.5-1.7-2.3-3.9-2.3-6.6
		V24c0-2.5,0.6-4.6,1.9-6.4C221,15.4,223.3,14.3,226.3,14.3z M221.4,23.2L221.4,23.2c3.6,0,6.6,0,9.1,0h0.1c0.7,0,1-0.5,1-1.4
		c0-2.2-0.6-3.7-1.9-4.8c-0.9-0.6-1.8-0.9-2.9-0.9l0,0c-1.1,0-2.1,0.3-3,1c-0.5,0.4-0.8,0.8-0.9,1c-0.4,0.5-0.7,1.2-0.9,2
		C221.5,21.5,221.4,22.5,221.4,23.2z"/>
	<path class="st7" d="M247.1,14.3c1.2,0,2.5,0.2,4,0.7c0.8,0.3,1.5,0.7,2.2,1.1c0.4,0.3,0.9,0.7,1.4,1.2c0.1,0.1,0.1,0.2,0.1,0.3
		c0,0.1-0.2,0.4-0.5,0.7c-0.1,0.1-0.2,0.2-0.4,0.2c-0.1,0-0.4-0.2-0.9-0.5c-1.9-1.1-3.8-1.7-5.7-1.7c-2.4,0-3.9,0.5-4.7,1.6
		c-0.3,0.5-0.5,1-0.5,1.6c0,1.4,1.5,2.4,4.5,2.8c1,0.1,1.8,0.2,2.3,0.3c0.1,0,0.2,0,0.3,0.1c1,0.2,1.7,0.4,2.3,0.7
		c2.4,1,3.6,2.6,3.6,4.8v0.2c0,2.4-1.2,4-3.5,4.9c-1.2,0.4-2.5,0.5-4,0.5h-0.3c-2.4,0-4.7-0.6-6.9-1.7c-0.7-0.4-1.3-0.8-2-1.5
		c-0.2-0.1-0.3-0.3-0.3-0.4l0,0c0-0.1,0.1-0.4,0.4-0.6c0.1-0.2,0.2-0.3,0.3-0.3h0.1c0.1,0,0.4,0.2,1,0.5c2.1,1.2,4.2,1.8,6.4,1.8
		c2.4,0,3.9-0.6,4.6-1.7c0.2-0.4,0.3-0.9,0.3-1.5c0-1.6-1.3-2.6-4-3.1c-0.5-0.1-1.3-0.2-2.5-0.3c-1.1-0.2-2-0.4-2.7-0.6
		c-2.5-0.9-3.7-2.3-3.7-4.2c0-2.3,1.2-3.9,3.5-4.9C243.6,14.5,245.3,14.3,247.1,14.3z"/>
	<path class="st7" d="M266.9,14.3c1.2,0,2.5,0.2,4,0.7c0.8,0.3,1.5,0.7,2.2,1.1c0.4,0.3,0.9,0.7,1.4,1.2c0.1,0.1,0.1,0.2,0.1,0.3
		c0,0.1-0.2,0.4-0.5,0.7c-0.1,0.1-0.2,0.2-0.4,0.2c-0.1,0-0.4-0.2-0.9-0.5c-1.9-1.1-3.8-1.7-5.7-1.7c-2.4,0-3.9,0.5-4.7,1.6
		c-0.3,0.5-0.5,1-0.5,1.6c0,1.4,1.5,2.4,4.5,2.8c1,0.1,1.8,0.2,2.3,0.3c0.1,0,0.2,0,0.3,0.1c1,0.2,1.7,0.4,2.3,0.7
		c2.4,1,3.6,2.6,3.6,4.8v0.2c0,2.4-1.2,4-3.5,4.9c-1.2,0.4-2.5,0.5-4,0.5h-0.3c-2.4,0-4.7-0.6-6.9-1.7c-0.7-0.4-1.3-0.8-2-1.5
		c-0.2-0.1-0.3-0.3-0.3-0.4l0,0c0-0.1,0.1-0.4,0.4-0.6c0.1-0.2,0.2-0.3,0.3-0.3h0.1c0.1,0,0.4,0.2,1,0.5c2.1,1.2,4.2,1.8,6.4,1.8
		c2.4,0,3.9-0.6,4.6-1.7c0.2-0.4,0.3-0.9,0.3-1.5c0-1.6-1.3-2.6-4-3.1c-0.5-0.1-1.3-0.2-2.5-0.3c-1.1-0.2-2-0.4-2.7-0.6
		c-2.5-0.9-3.7-2.3-3.7-4.2c0-2.3,1.2-3.9,3.5-4.9C263.5,14.5,265.2,14.3,266.9,14.3z"/>
</g>
</svg>
