<?xml version="1.0" encoding="utf-8"?>
<!-- Generator: Adobe Illustrator 23.0.0, SVG Export Plug-In . SVG Version: 6.00 Build 0)  -->
<svg version="1.1" id="图层_1" xmlns="http://www.w3.org/2000/svg" xmlns:xlink="http://www.w3.org/1999/xlink" x="0px" y="0px"
	 viewBox="0 0 50 50" style="enable-background:new 0 0 50 50;" xml:space="preserve">
<style type="text/css">
	.st0{fill:#FFFFFF;}
</style>
<g>
	<path class="st0" d="M41.3,16.3c-1.6-2.8-3.9-5.1-6.7-6.7c-0.7-0.4-1.6-0.2-2,0.5c-0.4,0.7-0.2,1.6,0.5,2c2.4,1.4,4.3,3.4,5.6,5.6
		c1.4,2.4,2.2,5.2,2.2,8c0,4.9-2.2,9.4-6.1,12.5c-0.1,0.1-0.3,0.1-0.4,0.1s-0.2-0.1-0.3-0.2l-2-3.1c2.7-2.1,4.6-5.4,4.6-9.1
		c0-6.4-5.2-11.5-11.5-11.5s-11.6,5-11.6,11.4c0,3.7,1.7,7.1,4.5,9.1l-2,3.1c-0.1,0.2-0.2,0.2-0.3,0.2c-0.1,0-0.2,0-0.4-0.1
		c-3.9-3-6.1-7.6-6.1-12.5c0-2.8,0.8-5.5,2.2-8c1.4-2.4,3.4-4.3,5.6-5.6c0.7-0.4,1-1.3,0.5-2s-1.3-1-2-0.5c-2.8,1.6-5.1,3.9-6.7,6.7
		s-2.6,6.1-2.6,9.4c0,2.9,0.7,5.8,2,8.4c1.2,2.5,3,4.7,5.2,6.4c0.7,0.4,1.3,0.8,2.1,0.8c0.2,0,0.4,0,0.7,0c1-0.2,1.8-0.8,2.3-1.5
		l2.1-3.3c1.4,0.7,2.9,1,4.6,1c1.6,0,3.1-0.3,4.5-0.9l2,3.3c0.5,0.9,1.3,1.4,2.3,1.5c0.2,0,0.4,0,0.7,0c0.8,0,1.5-0.2,2.1-0.8
		c2.2-1.7,4-3.9,5.2-6.4l0,0c1.3-2.6,2-5.4,2-8.4C43.9,22.4,43,19.1,41.3,16.3z M25.1,34.3c-4.8,0-8.6-3.9-8.6-8.6
		c0-4.8,3.9-8.6,8.6-8.6c4.8,0,8.6,3.9,8.6,8.6C33.8,30.5,29.9,34.3,25.1,34.3z"/>
	<path class="st0" d="M28.3,24.9H27c-0.2,0-1,0.1-1.3,0c0-0.1,0.1-0.5,0.1-0.7c0.1-0.5,0.2-0.9,0.4-1.4l0.7-2.1
		c0-0.4-0.4-0.5-0.5-0.2l-4.7,6.4c-0.1,0.1,0,0.4,0.2,0.4h1.8c0.1,0,0.7-0.1,0.8,0c0,0-0.1,0.4-0.1,0.5c-0.4,1.3-0.7,2.4-1,3.7
		c-0.1,0.2,0.2,0.4,0.4,0.1l4.7-6.4C28.5,25.1,28.4,24.9,28.3,24.9z"/>
</g>
</svg>
